<?xml version="1.0" encoding="utf-8"?>
<!-- Generator: Adobe Illustrator 26.0.0, SVG Export Plug-In . SVG Version: 6.00 Build 0)  -->
<svg version="1.1" id="Layer_1" xmlns="http://www.w3.org/2000/svg" xmlns:xlink="http://www.w3.org/1999/xlink" x="0px" y="0px"
	 width="548px" height="200px" viewBox="0 0 548 200" style="enable-background:new 0 0 548 200;" xml:space="preserve">
<style type="text/css">
	.st0{fill:#FFFFFF;}
</style>
<path class="st0" d="M207.4,58.7c0-15.8-6.2-30.4-17.2-41.6C179,6.2,164.2,0,148.7,0c-15.4,0-30,6-41,16.8c-5-0.8-10.2-1.4-15.4-1.4
	c-24.6,0-47.8,9.6-65.1,27S0,82.9,0,107.7c0,21,7,40.8,19.6,56.9c-2,0.8-3.8,2-5.4,3.6c-6.8,6.8-6.8,18,0,25c3.4,3.4,8,5.2,12.4,5.2
	s9-1.8,12.4-5.2c2-2,3.6-4.6,4.4-7.2c14.4,9,31.2,14,48.8,14c24.6,0,47.8-9.6,65.1-27s27-40.6,27-65.1c0-0.8,0-1.6,0-2.4
	c2-1.6,4-3.2,5.8-5C201.2,89.1,207.4,74.3,207.4,58.7z M155.2,44.6c16,16,25.2,37,26,59.3c-21.8,15.8-52.5,14-72.1-5.8
	C87.7,76.5,87.5,41.8,108.5,20C125.7,23,142.1,31.2,155.2,44.6z M37.2,191c-5.8,5.8-15,5.8-20.8,0c-5.8-5.8-5.8-15,0-20.8
	c1.6-1.6,3.4-2.6,5.2-3.4c1.8,2,3.6,4,5.4,6c4.4,4.4,9,8.2,14,11.4C40.4,186.8,39,189,37.2,191z M41.4,181c-4.4-3-8.4-6.4-12.2-10.2
	c-1.4-1.4-3-3-4.2-4.6c0.6,0,1.2-0.2,1.8-0.2c3.8,0,7.6,1.4,10.4,4.2C40,173.2,41.4,177,41.4,181z M181.4,107.7
	c0,23.8-9.2,46.4-26.2,63.1c-16.8,16.8-39.4,26.2-63.1,26.2c-17.4,0-33.8-5-48.2-14c0.6-5.2-1-10.6-5-14.6c-4.4-4.4-10.8-6-16.6-4.6
	C9.6,148.1,2.6,128.5,2.6,107.9c0-23.8,9.2-46.4,26.2-63.1c17.4-17.4,40.2-26.2,63.1-26.2c4.4,0,8.6,0.4,12.8,1
	c-20.8,23-20.2,58.7,2,80.9c11.4,11.4,26.6,17.2,41.6,17.2c11.4,0,23-3.4,32.8-10C181.4,107.5,181.4,107.5,181.4,107.7z
	 M184.2,101.7c-1.4-22.4-10.8-43.2-26.8-59.3c-12.8-12.8-28.8-21.4-46.2-25C121.5,8,134.7,3,148.7,3c15,0,29,5.8,39.4,16.4
	C198.6,30,204.4,44,204.4,58.7c0,15-5.8,29-16.4,39.4C186.8,99.5,185.6,100.5,184.2,101.7z"/>
<path class="st0" d="M43.5,112.3c-14.2,14.2-14.2,37.4,0,51.7c7.2,7.2,16.4,10.6,25.8,10.6s18.8-3.6,25.8-10.6
	c14.2-14.2,14.2-37.4,0-51.7C81.1,98,57.9,98,43.5,112.3z M93.2,161.9c-13.2,13.2-34.4,13.2-47.6,0s-13.2-34.4,0-47.6
	c6.6-6.6,15.2-9.8,23.8-9.8s17.2,3.2,23.8,9.8C106.2,127.5,106.2,148.7,93.2,161.9z"/>
<path class="st0" d="M255.5,42c2,1.6,3.4,4.6,3.4,7.4c0,5.6-4.6,9.8-10,9.8h-8.4c-0.6,0-1-0.4-1-1V26.6c0-0.6,0.4-1,1-1h8.4
	c5.2,0,9.4,3.8,9.4,9c0,2.2-1,4.8-2.8,6.4C255.3,41.4,255.3,41.8,255.5,42z M243.2,28.6c-0.2,0-0.4,0.2-0.4,0.4v10.6
	c0,0.2,0.2,0.4,0.4,0.4h6.6c3.2,0,5.6-2.6,5.6-5.8s-2.4-5.8-5.6-5.8h-6.6V28.6z M249.5,56.2c3.6,0,6.6-3,6.6-6.6
	c0-3.6-3-6.6-6.6-6.6h-6.4c-0.2,0-0.4,0.2-0.4,0.4v12.2c0,0.2,0.2,0.4,0.4,0.4h6.4V56.2z"/>
<path class="st0" d="M276.9,37.6c-3.4,0-6.2,2.4-6.2,5.8v14.8c0,0.6-0.4,1-1,1h-1c-0.6,0-1-0.4-1-1v-22c0-0.6,0.4-1,1-1h0.8
	c0.2,0,0.4,0.2,0.6,0.4c0.2,0.4,0.8,0.8,1.2,0.8c1.4,0,2.4-1.6,5.8-1.6c4.8,0,8.4,3.2,8.4,8.2c0,0.6-0.4,1-1,1h-1c-0.6,0-1-0.4-1-1
	C283.1,39.8,280.7,37.6,276.9,37.6z"/>
<path class="st0" d="M301.9,56.8c3.6,0,5.8-2.2,6.4-4.6c0.2-0.6,0.6-0.8,1.2-0.8h1c0.4,0,1,0.2,0.8,1c-0.6,4.2-4.4,7.2-9.4,7.2
	c-5.8,0-9.4-4-9.8-9.2c-0.2-2-0.2-4.8,0-6.8c0.4-5,4-9.2,9.8-9.2c5.4,0,9.6,4.4,9.6,9.6v3c0,0.6-0.4,1-1,1h-15.2
	c-0.2,0-0.4,0.2-0.4,0.4C294.7,53.4,296.9,56.8,301.9,56.8z M295.3,45.6h13c0.2,0,0.4-0.2,0.4-0.4c0-4.8-3-7.6-7-7.6
	c-4.2,0-7,2.8-7,7.6C294.9,45.4,295.1,45.6,295.3,45.6z"/>
<path class="st0" d="M322.7,41.6c0,0.8-0.6,0.8-1.2,0.8h-0.6c-0.8,0-1-0.4-1-1c0-4.4,4.2-6.8,8.4-6.8c4.8,0,8.6,2.4,8.6,8v15.6
	c0,0.6-0.4,1-1,1h-0.4c-0.2,0-0.6,0-0.6-0.4c-0.2-0.4-0.4-1-1-1c-0.8,0-2.8,1.8-6.4,1.8c-6,0-8.8-3.6-8.8-7.6s2.8-7,8-7h6.8
	c0.2,0,0.4-0.2,0.4-0.4v-1.8c0-3.2-2.4-5.2-5.8-5.2C325.5,37.4,322.7,39,322.7,41.6z M326.9,47.6c-2.6,0-5,1.4-5,4.4
	c0,3.4,2.6,5,5.6,5c4.4,0,7-2.2,7-6v-2.8c0-0.2-0.2-0.4-0.4-0.4h-7.2V47.6z"/>
<path class="st0" d="M350.1,49.2c-0.2-0.2-0.4-0.2-0.4,0v9c0,0.6-0.4,1-1,1h-0.8c-0.6,0-1-0.4-1-1v-32c0-0.6,0.4-1,1-1h1
	c0.6,0,1,0.4,1,1v18c0,0.2,0.2,0.2,0.4,0l9.6-8.4c0.2-0.2,0.6-0.6,1.4-0.6h0.8c1.2,0,1.2,1.2,0.6,1.6l-10.6,9.4
	c-0.4,0.4-0.4,0.8,0,1.2l11.2,10.2c0.6,0.6,0.4,1.6-0.6,1.6h-1c-0.8,0-1.2-0.4-1.4-0.8L350.1,49.2z"/>
<path class="st0" d="M379.1,51.6c0,3.4,2.2,5.2,4.6,5.2c2.8,0,4.4-2.2,4.4-4.8c0-0.6,0.4-1,1-1h1c0.6,0,1,0.4,1,1
	c0,4.2-3.2,7.6-7.4,7.6s-7.4-3.4-7.4-7.6V38.8c0-0.2-0.2-0.4-0.4-0.4h-5.4c-0.6,0-1-0.4-1-1v-1c0-0.6,0.4-1,1-1h5.4
	c0.2,0,0.4-0.2,0.4-0.4v-7.4c0-0.6,0.4-1,1-1h1c0.6,0,1,0.4,1,1V35c0,0.2,0.2,0.4,0.4,0.4h8c0.6,0,1,0.4,1,1v1c0,0.6-0.4,1-1,1h-8
	c-0.2,0-0.4,0.2-0.4,0.4v12.8H379.1z"/>
<path class="st0" d="M399.5,59.2c-0.6,0-1-0.4-1-1v-32c0-0.6,0.4-1,1-1h1c0.6,0,1,0.4,1,1v8.6c0,0.4,0.4,1,1,1c1,0,2.4-1.2,5.2-1.2
	c5,0,8.4,3.8,8.4,8.4v15.2c0,0.6-0.4,1-1,1h-1c-0.6,0-1-0.4-1-1V43c0-3.2-2.4-5.6-5.8-5.6s-5.8,2.4-5.8,5.2V58c0,0.6-0.4,1-1,1h-1
	V59.2z"/>
<path class="st0" d="M435.3,37.6c-3.4,0-6.2,2.4-6.2,5.8v14.8c0,0.6-0.4,1-1,1h-1c-0.6,0-1-0.4-1-1v-22c0-0.6,0.4-1,1-1h0.8
	c0.2,0,0.4,0.2,0.6,0.4c0.2,0.4,0.8,0.8,1.2,0.8c1.4,0,2.4-1.6,5.8-1.6c4.8,0,8.4,3.2,8.4,8.2c0,0.6-0.4,1-1,1h-1c-0.6,0-1-0.4-1-1
	C441.5,39.8,439.1,37.6,435.3,37.6z"/>
<path class="st0" d="M469.6,43.8c0.2,2,0.2,4.8,0,6.8c-0.4,5-4,9.2-9.6,9.2c-5.6,0-9.4-4-9.6-9.2c-0.2-2-0.2-4.8,0-6.8
	c0.4-5,4-9.2,9.6-9.2C465.6,34.6,469.2,38.8,469.6,43.8z M466.6,50.6c0.2-2,0.2-4.8,0-6.8c-0.2-2.6-2-6.2-6.8-6.2
	c-4.8,0-6.6,3.8-6.8,6.2c-0.2,2-0.2,4.8,0,6.8c0.2,2.6,2,6.2,6.8,6.2C464.6,56.8,466.4,53.2,466.6,50.6z"/>
<path class="st0" d="M486,59.6c-5,0-8.6-2.8-8.6-8.4V36c0-0.6,0.4-1,1-1h1c0.6,0,1,0.4,1,1v15.2c0,4,2.6,5.6,6,5.6
	c3.4,0,6-2.4,6-5.2V36.2c0-0.6,0.4-1,1-1h1c0.6,0,1,0.4,1,1v22c0,0.6-0.4,1-1,1h-0.8c-0.2,0-0.4-0.2-0.6-0.4
	c-0.2-0.4-0.6-0.8-1.2-0.8C490.2,58,489.6,59.6,486,59.6z"/>
<path class="st0" d="M521,35.2c0.6,0,1,0.4,1,1v24.4c0,4.6-3.4,8.6-8.6,8.6c-3.8,0-7.6-2.2-8.4-6.6c-0.2-0.6,0.2-1.2,0.8-1.2h0.8
	c0.8,0,1,0.4,1.2,1c0.6,1.8,2.2,3.8,5.6,3.8c3.6,0,5.8-3,5.8-5.8v-1c0-0.8-0.4-1.2-1-1.2c-1,0-3,1.2-5.2,1.2c-5,0-8.8-4-9.2-9.2
	c-0.2-2-0.2-4.8,0-6.8c0.4-5,4-9.2,9.2-9.2c3.6,0,4,1.6,5.4,1.6c0.4,0,1-0.4,1.2-0.8c0.2-0.2,0.4-0.4,0.6-0.4h0.8V35.2z M506.6,43.8
	c-0.2,2-0.2,4.8,0,6.8c0.2,2.6,1.8,6.2,6.4,6.2c4.2,0,5.6-3.8,6-6.2c0.2-2,0.2-4.8,0-6.8c-0.2-2.6-1.6-6.2-6-6.2
	C508.4,37.6,507,41.2,506.6,43.8z"/>
<path class="st0" d="M531.4,59.2c-0.6,0-1-0.4-1-1v-32c0-0.6,0.4-1,1-1h1c0.6,0,1,0.4,1,1v8.6c0,0.4,0.4,1,1,1c1,0,2.4-1.2,5.2-1.2
	c5,0,8.4,3.8,8.4,8.4v15.2c0,0.6-0.4,1-1,1h-1c-0.6,0-1-0.4-1-1V43c0-3.2-2.4-5.6-5.8-5.6s-5.8,2.4-5.8,5.2V58c0,0.6-0.4,1-1,1h-1
	V59.2z"/>
<path class="st0" d="M247.6,100c-3.6-0.8-8-2.6-8-8.2c0-5.8,4.4-9,9.4-9c5.6,0,9.4,4,9.4,9v0.6c0,0.6-0.4,1-1,1h-1.2
	c-0.6,0-1-0.4-1-1v-0.6c0-3.4-2.6-6-6.2-6c-4.2,0-6.2,3-6.2,6c0,4.4,4.6,4.8,7.8,5.8c5.2,1.6,8.8,3.6,8.8,9.6c0,6.2-4.8,10-10.4,10
	c-6.2,0-10.4-4.6-10.4-10v-0.8c0-0.6,0.4-1,1-1h1.2c0.6,0,1,0.4,1,1v0.8c0,3.4,2.4,7,7.2,7c4.4,0,7.2-2.8,7.2-7
	C256.1,102.7,252.9,101.3,247.6,100z"/>
<path class="st0" d="M281.7,108.9c0-0.6,0.4-0.8,1-0.8h1c0.6,0,1,0.4,1,1c0,4.4-3.6,8.2-9,8.2c-5.8,0-9.4-4-9.6-9.2
	c-0.2-2-0.2-4.8,0-6.8c0.4-5,4-9.2,9.6-9.2c5.4,0,9,3.8,9,8.2c0,0.6-0.2,1-0.8,1h-1.2c-0.4,0-1-0.2-1-0.8c0-2.8-2.2-5.6-6.2-5.6
	c-4.8,0-6.6,3.8-6.8,6.2c-0.2,2-0.2,4.8,0,6.8c0.2,2.6,2,6.2,6.8,6.2C279.9,114.3,281.7,111.3,281.7,108.9z"/>
<path class="st0" d="M294.7,95.6c-0.6,0-1-0.4-1-1v-1c0-0.6,0.4-1,1-1h8.4c0.6,0,1,0.4,1,1v19.6c0,0.2,0.2,0.4,0.4,0.4h6.2
	c0.6,0,1,0.4,1,1v1c0,0.6-0.4,1-1,1h-16.6c-0.6,0-1-0.4-1-1v-1c0-0.6,0.4-1,1-1h6.4c0.2,0,0.4-0.2,0.4-0.4V96c0-0.2-0.2-0.4-0.4-0.4
	H294.7z M304.3,86.2c0,0.4-0.4,0.8-0.8,0.8h-2.4c-0.4,0-0.8-0.4-0.8-0.8v-2.6c0-0.4,0.4-0.8,0.8-0.8h2.4c0.4,0,0.8,0.4,0.8,0.8V86.2
	z"/>
<path class="st0" d="M328.3,114.3c3.6,0,5.8-2.2,6.4-4.6c0.2-0.6,0.6-0.8,1.2-0.8h1c0.4,0,1,0.2,0.8,1c-0.6,4.2-4.4,7.2-9.4,7.2
	c-5.8,0-9.4-4-9.8-9.2c-0.2-2-0.2-4.8,0-6.8c0.4-5,4-9.2,9.8-9.2c5.4,0,9.6,4.4,9.6,9.6v3c0,0.6-0.4,1-1,1h-15.2
	c-0.2,0-0.4,0.2-0.4,0.4C321.1,110.9,323.3,114.3,328.3,114.3z M321.7,103.1h13c0.2,0,0.4-0.2,0.4-0.4c0-4.8-3-7.6-7-7.6
	c-4.2,0-7,2.8-7,7.6C321.3,102.9,321.5,103.1,321.7,103.1z"/>
<path class="st0" d="M354.7,92.4c5,0,8.6,2.8,8.6,8.4v15.2c0,0.6-0.4,1-1,1h-1c-0.6,0-1-0.4-1-1v-15.2c0-4-2.6-5.6-6-5.6
	c-3.4,0-6,2.4-6,5.2v15.4c0,0.6-0.4,1-1,1h-1c-0.6,0-1-0.4-1-1v-22c0-0.6,0.4-1,1-1h0.8c0.2,0,0.4,0.2,0.6,0.4
	c0.2,0.4,0.6,0.8,1.2,0.8C350.5,94,351.1,92.4,354.7,92.4z"/>
<path class="st0" d="M387.3,108.9c0-0.6,0.4-0.8,1-0.8h1c0.6,0,1,0.4,1,1c0,4.4-3.6,8.2-9,8.2c-5.8,0-9.4-4-9.6-9.2
	c-0.2-2-0.2-4.8,0-6.8c0.4-5,4-9.2,9.6-9.2c5.4,0,9,3.8,9,8.2c0,0.6-0.2,1-0.8,1h-1.2c-0.4,0-1-0.2-1-0.8c0-2.8-2.2-5.6-6.2-5.6
	c-4.8,0-6.6,3.8-6.8,6.2c-0.2,2-0.2,4.8,0,6.8c0.2,2.6,2,6.2,6.8,6.2C385.5,114.3,387.3,111.3,387.3,108.9z"/>
<path class="st0" d="M407.5,114.3c3.6,0,5.8-2.2,6.4-4.6c0.2-0.6,0.6-0.8,1.2-0.8h1c0.4,0,1,0.2,0.8,1c-0.6,4.2-4.4,7.2-9.4,7.2
	c-5.8,0-9.4-4-9.8-9.2c-0.2-2-0.2-4.8,0-6.8c0.4-5,4-9.2,9.8-9.2c5.4,0,9.6,4.4,9.6,9.6v3c0,0.6-0.4,1-1,1h-15.2
	c-0.2,0-0.4,0.2-0.4,0.4C400.3,110.9,402.5,114.3,407.5,114.3z M400.9,103.1h13c0.2,0,0.4-0.2,0.4-0.4c0-4.8-3-7.6-7-7.6
	c-4.2,0-7,2.8-7,7.6C400.5,102.9,400.7,103.1,400.9,103.1z"/>
<path class="st0" d="M243.2,160.9c-0.2,0-0.4,0.2-0.4,0.4v12c0,0.6-0.4,1-1,1h-1.2c-0.6,0-1-0.4-1-1v-31.6c0-0.6,0.4-1,1-1h8.2
	c5.6,0,10,4.6,10,10c0,4.4-2.2,7-5.8,9.2c-0.6,0.4-0.8,0.8-0.4,1.6l6,11.4c0.4,0.8,0,1.4-1,1.4h-1c-1.4,0-1.8-1.6-2.2-2.6l-5.2-10.2
	c-0.2-0.2-0.4-0.6-1-0.6C248.1,160.9,243.2,160.9,243.2,160.9z M243.2,143.7c-0.2,0-0.4,0.2-0.4,0.4v13c0,0.2,0.2,0.4,0.4,0.4h5.6
	c3.8,0,7-3.2,7-7c0-3.8-3.2-7-7-7h-5.6V143.7z"/>
<path class="st0" d="M284.9,158.9c0.2,2,0.2,4.8,0,6.8c-0.4,5-4,9.2-9.6,9.2c-5.6,0-9.4-4-9.6-9.2c-0.2-2-0.2-4.8,0-6.8
	c0.4-5,4-9.2,9.6-9.2C280.9,149.7,284.5,153.9,284.9,158.9z M281.9,165.7c0.2-2,0.2-4.8,0-6.8c-0.2-2.6-2-6.2-6.8-6.2
	c-4.8,0-6.6,3.8-6.8,6.2c-0.2,2-0.2,4.8,0,6.8c0.2,2.6,2,6.2,6.8,6.2C279.9,171.9,281.7,168.3,281.9,165.7z"/>
<path class="st0" d="M296.3,156.7c0,0.8-0.6,0.8-1.2,0.8h-0.6c-0.8,0-1-0.4-1-1c0-4.4,4.2-6.8,8.4-6.8c4.8,0,8.6,2.4,8.6,8v15.6
	c0,0.6-0.4,1-1,1h-0.4c-0.2,0-0.6,0-0.6-0.4c-0.2-0.4-0.4-1-1-1c-0.8,0-2.8,1.8-6.4,1.8c-6,0-8.8-3.6-8.8-7.6s2.8-7,8-7h6.8
	c0.2,0,0.4-0.2,0.4-0.4v-1.8c0-3.2-2.4-5.2-5.8-5.2C299.1,152.5,296.3,154.1,296.3,156.7z M300.5,162.7c-2.6,0-5,1.4-5,4.4
	c0,3.4,2.6,5,5.6,5c4.4,0,7-2.2,7-6v-2.8c0-0.2-0.2-0.4-0.4-0.4h-7.2V162.7z"/>
<path class="st0" d="M318.9,165.7c-0.2-2-0.2-4.8,0-6.8c0.4-5,4-9.2,9.2-9.2c3,0,4,1.2,5,1.2c0.8,0,1.2-0.2,1.2-1.2v-8.4
	c0-0.6,0.4-1,1-1h1c0.6,0,1,0.4,1,1v32c0,0.6-0.4,1-1,1h-0.8c-0.2,0-0.4-0.2-0.6-0.4c-0.2-0.4-0.8-0.8-1.2-0.8c-1.4,0-2,1.6-5.4,1.6
	C323.1,174.7,319.3,170.7,318.9,165.7z M334.3,165.7c0.2-2,0.2-4.8,0-6.8c-0.2-2.6-1.6-6.2-6-6.2c-4.6,0-6.2,3.8-6.4,6.2
	c-0.2,2-0.2,4.8,0,6.8c0.2,2.6,1.8,6.2,6.4,6.2C332.7,171.9,334.1,168.3,334.3,165.7z"/>
<path class="st0" d="M359.1,149.9c3.4,0,4.8,2.8,4.8,5.8v17.8c0,0.6-0.4,1-1,1h-1c-0.6,0-1-0.4-1-1v-18.4c0-1.6-1.4-2.4-2.8-2.4
	s-2.6,1-2.6,2.4v18.4c0,0.6-0.4,1-1,1h-0.6c-0.6,0-1-0.4-1-1v-18.4c0-1.4-1.4-2.4-2.6-2.4s-2.6,1-2.6,2.4v18.4c0,0.6-0.4,1-1,1h-1
	c-0.6,0-1-0.4-1-1v-22c0-0.6,0.4-1,1-1h0.2c0.2,0,0.4,0.2,0.6,0.4c0.2,0.2,0.2,0.4,0.6,0.4c0.6,0,1.2-1.2,3.4-1.2
	c1.8,0,2.6,0.8,3.4,1.8c0,0.2,0.2,0.2,0.4,0.2c0.2,0,0.4,0,0.6-0.2C355.7,150.9,356.7,149.9,359.1,149.9z"/>
<path class="st0" d="M375.5,156.7c0,0.8-0.6,0.8-1.2,0.8h-0.4c-0.8,0-1-0.4-1-1c0-4.4,4.2-6.8,8.4-6.8c4.8,0,8.6,2.4,8.6,8v15.6
	c0,0.6-0.4,1-1,1h-0.4c-0.2,0-0.6,0-0.6-0.4c-0.2-0.4-0.4-1-1-1c-0.8,0-2.8,1.8-6.4,1.8c-6,0-8.8-3.6-8.8-7.6s2.8-7,8-7h6.8
	c0.2,0,0.4-0.2,0.4-0.4v-1.8c0-3.2-2.4-5.2-5.8-5.2C378.3,152.5,375.5,154.1,375.5,156.7z M379.7,162.7c-2.6,0-5,1.4-5,4.4
	c0,3.4,2.6,5,5.6,5c4.4,0,7-2.2,7-6v-2.8c0-0.2-0.2-0.4-0.4-0.4h-7.2V162.7z"/>
<path class="st0" d="M416.3,158.9c0.2,2,0.2,4.8,0,6.8c-0.4,5-4,9.2-9.2,9.2c-3,0-4.2-1.2-5.2-1.2c-0.6,0-1.2,0.2-1.2,1.2v8.2
	c0,0.6-0.4,1-1,1h-1c-0.6,0-1-0.4-1-1v-31.8c0-0.6,0.4-1,1-1h0.8c0.2,0,0.4,0.2,0.6,0.4c0.2,0.4,0.8,0.8,1.2,0.8
	c1.4,0,2-1.6,5.4-1.6C412.1,149.9,415.9,153.9,416.3,158.9z M400.9,158.9c-0.2,2-0.2,4.8,0,6.8c0.2,2.6,1.6,6.2,6,6.2
	c4.6,0,6.2-3.8,6.4-6.2c0.2-2,0.2-4.8,0-6.8c-0.2-2.6-1.8-6.2-6.4-6.2C402.7,152.7,401.3,156.3,400.9,158.9z"/>
</svg>
