<?xml version="1.0" encoding="utf-8"?>
<!-- Generator: Adobe Illustrator 26.0.0, SVG Export Plug-In . SVG Version: 6.00 Build 0)  -->
<svg version="1.1" id="Layer_1" xmlns="http://www.w3.org/2000/svg" xmlns:xlink="http://www.w3.org/1999/xlink" x="0px" y="0px"
	 width="125px" height="56px" viewBox="0 0 125 56" style="enable-background:new 0 0 125 56;" xml:space="preserve">
<style type="text/css">
	.st0{fill:#FFFFFF;}
</style>
<path class="st0" d="M43.4,7.5C38.6,2.7,32.3,0,25.5,0c0,0-0.1,0-0.1,0c0,0,0,0,0,0c0,0,0,0,0,0c-0.1,0-0.2,0-0.3,0
	C11.3,0.2,0.1,11.4,0,25.2C-0.1,42.1,13.6,55.9,30.5,56l0-5.9C42,47.6,50.6,37.5,50.7,25.4C50.7,18.7,48.1,12.3,43.4,7.5z
	 M25.4,44.6c-1.3-0.7-4.4-7.3-4.4-19.3c0-12,3.1-18.6,4.4-19.3c4.5,0.1,9.4,8,9.4,19.3C34.8,36.6,29.9,44.5,25.4,44.6z M6,25.2
	c0.1-7.9,4.9-14.7,11.7-17.6c-0.1,0.3-0.2,0.7-0.4,1c-1.5,4.5-2.3,10.4-2.3,16.7s0.8,12.2,2.3,16.7c0.8,2.5,1.7,4.3,2.7,5.6
	C11.7,43.6,6,35,6,25.2z M38.1,39.7c1.7-4.1,2.7-9,2.7-14.4c0-5.4-1-10.4-2.7-14.5c0.3,0.3,0.7,0.6,1,0.9c3.6,3.7,5.6,8.5,5.6,13.7
	C44.7,31.1,42.1,36.2,38.1,39.7z"/>
<path class="st0" d="M63.2,12.5v5.6h-2.7V4.3h5.2c1.8,0,2.9,0.4,3.6,1.2c1.5,1.6,1.5,4.1,0,5.7c-0.8,0.8-1.9,1.2-3.6,1.2L63.2,12.5
	C63.2,12.6,63.2,12.5,63.2,12.5z M65.6,10.2c0.9,0,1.4-0.2,1.7-0.5c0.3-0.3,0.5-0.7,0.5-1.1c0-0.4-0.2-0.8-0.5-1.2
	c-0.3-0.3-0.8-0.5-1.7-0.5h-2.4v3.4H65.6z"/>
<path class="st0" d="M78.1,10.8c-0.3,0-0.6-0.1-1-0.1c-1,0-1.9,0.5-2.4,1.4v6h-2.6V8.6h2.5v1c0.7-0.8,1.8-1.2,2.8-1.1
	c0.3,0,0.6,0,0.9,0.1L78.1,10.8z"/>
<path class="st0" d="M81.7,3.5c0.9,0,1.7,0.8,1.6,1.7c0,0.9-0.8,1.6-1.7,1.6c-0.9,0-1.6-0.7-1.6-1.6C80,4.2,80.8,3.5,81.7,3.5
	C81.7,3.5,81.7,3.5,81.7,3.5z M83,18.2h-2.6V8.6H83V18.2z"/>
<path class="st0" d="M86,18.2V8.6h2.5v0.7c0.7-0.6,1.7-1,2.6-0.9c1.3,0,2.5,0.5,3.3,1.5c0.9-0.9,2.1-1.5,3.4-1.5
	c1.3,0,2.6,0.5,3.4,1.5c0.7,0.9,1.1,2,1,3.2v5.1h-2.6V13c0.1-0.6-0.1-1.2-0.5-1.6c-0.4-0.4-0.9-0.6-1.5-0.6c-1,0-1.8,0.5-2.4,1.2
	c0.1,0.3,0.1,0.7,0.1,1v5.1h-2.6V13c0.1-0.6-0.1-1.2-0.5-1.6c-0.4-0.4-0.9-0.6-1.5-0.6c-0.9,0-1.7,0.5-2.3,1.2v6.2H86z"/>
<path class="st0" d="M113.1,16.7c-1,1.1-2.5,1.7-4,1.7c-2.9,0-5.1-2-5.1-5c0-2.7,1.8-5,4.7-5c2.7,0,4.6,2.2,4.6,4.9
	c0,0.2,0,0.5-0.1,0.7h-6.7c0.2,1.3,1.3,2.3,2.6,2.3c1,0,1.8-0.4,2.5-1.1L113.1,16.7z M110.7,12.2c-0.1-0.9-1-1.7-1.9-1.7
	c-1,0-1.9,0.7-2.1,1.7H110.7z"/>
<path class="st0" d="M67.4,31.4l5.1-8.3h1.9V37h-2.7v-7.7l-3.4,5.4h-1.9l-3.4-5.4V37h-2.7V23.1h1.9L67.4,31.4z"/>
<path class="st0" d="M81.8,27.2c2.8,0,5,2.3,4.9,5.1c-0.1,2.7-2.4,4.9-5.1,4.9c-2.7,0-4.9-2.3-4.9-5c0-2.7,2.3-5,5-5
	C81.7,27.2,81.7,27.2,81.8,27.2z M81.8,34.8c1.5,0,2.7-1.1,2.7-2.5c0.1-1.4-1.1-2.6-2.6-2.7c-1.5,0-2.7,1.1-2.7,2.5c0,0,0,0,0,0.1
	c-0.1,1.4,1,2.5,2.4,2.6C81.7,34.8,81.7,34.8,81.8,34.8z"/>
<path class="st0" d="M92.8,33.2l2.7-5.8h2.7L93.7,37h-1.8l-4.4-9.6h2.7L92.8,33.2z"/>
<path class="st0" d="M107.7,35.5c-1,1.1-2.5,1.7-4,1.7c-2.9,0-5.1-2-5.1-5c0-2.7,1.9-5,4.7-5c2.7,0,4.6,2.2,4.6,4.9
	c0,0.2,0,0.5-0.1,0.7h-6.7c0.2,1.3,1.3,2.3,2.6,2.3c0.9,0,1.8-0.4,2.4-1.1L107.7,35.5z M105.3,31c-0.1-0.9-1-1.7-1.9-1.7
	c-1,0-1.9,0.7-2.1,1.7H105.3z"/>
<path class="st0" d="M116,29.6c-0.3,0-0.6-0.1-1-0.1c-1,0-1.9,0.5-2.4,1.4v6h-2.6v-9.6h2.5v0.9c0.7-0.8,1.8-1.2,2.8-1.1
	c0.3,0,0.6,0,0.9,0.1L116,29.6z"/>
<path class="st0" d="M118.5,34c0.8,0.6,1.7,0.9,2.7,0.9c0.7,0,1.3-0.3,1.3-0.8c0-1.4-4.7-0.9-4.7-4c0-1.8,1.8-3,3.7-3
	c1.2,0,2.3,0.3,3.3,1l-1.2,1.8c-0.6-0.4-1.2-0.6-1.9-0.6c-0.7,0-1.3,0.2-1.3,0.7c0,1.2,4.7,0.7,4.7,4.1c0,1.8-1.8,3-3.9,3
	c-1.4,0-2.8-0.4-3.9-1.3L118.5,34z"/>
<path class="st0" d="M60.5,41.9h2.7v11.5H69v2.4h-8.6L60.5,41.9L60.5,41.9z"/>
<path class="st0" d="M80,55.8h-2.5V55c-0.8,0.6-1.7,1-2.7,0.9c-1.4,0-2.7-0.6-3.7-1.6C70.4,53.4,70,52.2,70,51c0-2.8,2.1-5,4.7-5
	c1,0,2,0.3,2.8,0.9v-0.7H80L80,55.8C80,55.8,80,55.8,80,55.8z M77.4,49.5c-0.6-0.7-1.5-1.2-2.4-1.2c-1.5,0.1-2.6,1.3-2.5,2.7
	c0.1,1.3,1.2,2.4,2.6,2.5c0.9,0,1.8-0.4,2.3-1.2L77.4,49.5L77.4,49.5z"/>
<path class="st0" d="M83,55.8v-14h2.6v5.1c0.8-0.6,1.8-0.9,2.7-0.9c2.6,0,4.7,2.2,4.7,5c0,1.2-0.5,2.4-1.3,3.4
	c-0.9,1-2.3,1.6-3.7,1.6c-1,0-2-0.3-2.7-0.9v0.7H83z M85.6,52.4c0.6,0.7,1.4,1.2,2.4,1.2c1.5,0,2.6-1.2,2.6-2.7
	c-0.1-1.3-1.2-2.4-2.5-2.5c-1,0-1.8,0.4-2.4,1.2V52.4z"/>
</svg>
