<svg id="Layer_1" data-name="Layer 1" xmlns="http://www.w3.org/2000/svg" xmlns:xlink="http://www.w3.org/1999/xlink" viewBox="0 0 249.62 112"><defs><style>.cls-1,.cls-2,.cls-3{fill:none;stroke-miterlimit:10;stroke-width:11.99px;}.cls-1{stroke:url(#linear-gradient);}.cls-2{stroke:url(#linear-gradient-2);}.cls-3{stroke:url(#linear-gradient-3);}.cls-4{fill:#231f20;}</style><linearGradient id="linear-gradient" x1="590.14" y1="375.15" x2="610.62" y2="375.15" gradientUnits="userSpaceOnUse"><stop offset="0" stop-color="#cbc1f0"/><stop offset="0.1" stop-color="#a8aeee"/><stop offset="0.23" stop-color="#8399ec"/><stop offset="0.36" stop-color="#6489eb"/><stop offset="0.5" stop-color="#4c7bea"/><stop offset="0.64" stop-color="#3b72e9"/><stop offset="0.8" stop-color="#316de8"/><stop offset="1" stop-color="#2e6be8"/></linearGradient><linearGradient id="linear-gradient-2" x1="610.61" y1="375.15" x2="641.6" y2="375.15" xlink:href="#linear-gradient"/><linearGradient id="linear-gradient-3" x1="560.06" y1="401.7" x2="661.26" y2="401.14" gradientTransform="matrix(1, 0.01, -0.01, 1, 2.2, -24.22)" xlink:href="#linear-gradient"/></defs><title>pml</title><path class="cls-1" d="M610.62,330.55c-8,0-14.49,20-14.49,44.6s6.49,44.6,14.49,44.6" transform="translate(-560.05 -324.55)"/><path class="cls-2" d="M610.61,330.55c13.8,0,25,20,25,44.6s-11.19,44.6-25,44.6" transform="translate(-560.05 -324.55)"/><path class="cls-3" d="M621.08,430.55a55.35,55.35,0,0,1-55-55.64,44.61,44.61,0,1,1,44.36,44.84" transform="translate(-560.05 -324.55)"/><path class="cls-4" d="M686.22,349.66V361h-5.35V333.2H691.3c3.57,0,5.67.87,7.22,2.49a8.69,8.69,0,0,1,0,11.51c-1.51,1.59-3.65,2.46-7.22,2.46Zm4.84-4.76c1.83,0,2.74-.44,3.37-1.11a3.33,3.33,0,0,0,.92-2.34,3.39,3.39,0,0,0-.92-2.38c-.63-.68-1.54-1.11-3.37-1.11h-4.84v6.94Z" transform="translate(-560.05 -324.55)"/><path class="cls-4" d="M716.17,346.29a7.11,7.11,0,0,0-1.86-.2,5.7,5.7,0,0,0-4.69,2.78V361h-5.15V341.72h5v1.95a7.19,7.19,0,0,1,5.59-2.34,10.57,10.57,0,0,1,1.75.16Z" transform="translate(-560.05 -324.55)"/><path class="cls-4" d="M723.31,331.61a3.29,3.29,0,1,1-3.37,3.29A3.3,3.3,0,0,1,723.31,331.61ZM725.89,361h-5.16V341.72h5.16Z" transform="translate(-560.05 -324.55)"/><path class="cls-4" d="M731.84,361V341.72h5v1.55a7.62,7.62,0,0,1,5.19-1.94,8.41,8.41,0,0,1,6.47,3,9.58,9.58,0,0,1,6.82-3,8.8,8.8,0,0,1,6.75,3.09,9.55,9.55,0,0,1,1.94,6.35V361h-5.16v-10.4a4.49,4.49,0,0,0-.95-3.29,3.86,3.86,0,0,0-2.89-1.19,6,6,0,0,0-4.65,2.54,16.71,16.71,0,0,1,.16,2.14V361h-5.15v-10.4a4.49,4.49,0,0,0-1-3.29,3.86,3.86,0,0,0-2.89-1.19,6,6,0,0,0-4.49,2.38V361Z" transform="translate(-560.05 -324.55)"/><path class="cls-4" d="M785.91,357.91a10.46,10.46,0,0,1-7.9,3.45c-5.75,0-10.07-4-10.07-10,0-5.35,3.64-10,9.36-10,5.31,0,9.08,4.48,9.08,9.84a8.3,8.3,0,0,1-.12,1.46H772.93a5.06,5.06,0,0,0,5.2,4.57A6.81,6.81,0,0,0,783,355Zm-4.8-9a3.84,3.84,0,0,0-3.81-3.38,4.18,4.18,0,0,0-4.13,3.38Z" transform="translate(-560.05 -324.55)"/><path class="cls-4" d="M694.75,387.41l10.12-16.62h3.77v27.77h-5.36V383.09L696.62,394h-3.73l-6.67-10.91v15.47h-5.35V370.79h3.77Z" transform="translate(-560.05 -324.55)"/><path class="cls-4" d="M723.43,378.92a10,10,0,1,1-10.24,10A10,10,0,0,1,723.43,378.92Zm0,15.28a5.26,5.26,0,1,0-5.08-5.24A5,5,0,0,0,723.43,394.2Z" transform="translate(-560.05 -324.55)"/><path class="cls-4" d="M745.48,391.06l5.28-11.74h5.36l-8.85,19.24H743.7l-8.85-19.24h5.36Z" transform="translate(-560.05 -324.55)"/><path class="cls-4" d="M775.28,395.5a10.43,10.43,0,0,1-7.9,3.46c-5.75,0-10.08-4-10.08-10,0-5.36,3.65-10,9.37-10,5.31,0,9.08,4.48,9.08,9.84a8.41,8.41,0,0,1-.12,1.47H762.3a5.05,5.05,0,0,0,5.2,4.56,6.81,6.81,0,0,0,4.84-2.22Zm-4.8-9a3.84,3.84,0,0,0-3.81-3.37,4.17,4.17,0,0,0-4.13,3.37Z" transform="translate(-560.05 -324.55)"/><path class="cls-4" d="M791.82,383.88a7.2,7.2,0,0,0-1.87-.2,5.7,5.7,0,0,0-4.68,2.78v12.1h-5.16V379.32h5v1.94a7.2,7.2,0,0,1,5.59-2.34,10.36,10.36,0,0,1,1.75.16Z" transform="translate(-560.05 -324.55)"/><path class="cls-4" d="M796.77,392.69a8.1,8.1,0,0,0,5.28,1.9c1.39,0,2.46-.67,2.46-1.62,0-2.9-9.32-1.87-9.32-8.06,0-3.69,3.57-6,7.37-6a11.88,11.88,0,0,1,6.51,1.95l-2.42,3.73a6.44,6.44,0,0,0-3.69-1.31c-1.43,0-2.62.55-2.62,1.54,0,2.5,9.33,1.51,9.33,8.18,0,3.69-3.61,5.95-7.66,5.95a13.36,13.36,0,0,1-7.74-2.58Z" transform="translate(-560.05 -324.55)"/><path class="cls-4" d="M680.87,408.38h5.35v23h11.71v4.76H680.87Z" transform="translate(-560.05 -324.55)"/><path class="cls-4" d="M719.94,436.15h-5v-1.54a8.07,8.07,0,0,1-5.35,1.94,9.67,9.67,0,0,1-7.26-3.25,10.34,10.34,0,0,1-2.46-6.75c0-5.67,4.2-10,9.44-10a8.81,8.81,0,0,1,5.63,1.94v-1.55h5Zm-5.16-12.49a5.9,5.9,0,0,0-4.76-2.38,5.26,5.26,0,0,0,.12,10.51,5.62,5.62,0,0,0,4.64-2.38Z" transform="translate(-560.05 -324.55)"/><path class="cls-4" d="M725.89,436.15V408H731V418.3a8.55,8.55,0,0,1,5.44-1.78c5.24,0,9.44,4.36,9.44,10a10.34,10.34,0,0,1-2.46,6.75,9.67,9.67,0,0,1-7.26,3.25,8.07,8.07,0,0,1-5.35-1.94v1.54Zm5.15-6.74a5.65,5.65,0,0,0,4.65,2.38,5.26,5.26,0,0,0,.11-10.51,5.93,5.93,0,0,0-4.76,2.38Z" transform="translate(-560.05 -324.55)"/></svg>