<?xml version="1.0" encoding="utf-8"?>
<!-- Generator: Adobe Illustrator 22.1.0, SVG Export Plug-In . SVG Version: 6.00 Build 0)  -->
<svg version="1.1" id="Layer_1" xmlns="http://www.w3.org/2000/svg" xmlns:xlink="http://www.w3.org/1999/xlink" x="0px" y="0px"
	 viewBox="0 0 249.6 112" style="enable-background:new 0 0 249.6 112;" xml:space="preserve">
<style type="text/css">
	.st0{fill:none;stroke:url(#SVGID_1_);stroke-width:11.99;stroke-miterlimit:10;}
	.st1{fill:none;stroke:url(#SVGID_2_);stroke-width:11.99;stroke-miterlimit:10;}
	.st2{fill:none;stroke:url(#SVGID_3_);stroke-width:11.99;stroke-miterlimit:10;}
	.st3{fill:#FFFFFF;}
</style>
<title>pml</title>
<linearGradient id="SVGID_1_" gradientUnits="userSpaceOnUse" x1="590.135" y1="-261.15" x2="610.62" y2="-261.15" gradientTransform="matrix(1 0 0 -1 -560.05 -210.55)">
	<stop  offset="0" style="stop-color:#CBC1F0"/>
	<stop  offset="0.1" style="stop-color:#A8AEEE"/>
	<stop  offset="0.23" style="stop-color:#8399EC"/>
	<stop  offset="0.36" style="stop-color:#6489EB"/>
	<stop  offset="0.5" style="stop-color:#4C7BEA"/>
	<stop  offset="0.64" style="stop-color:#3B72E9"/>
	<stop  offset="0.8" style="stop-color:#316DE8"/>
	<stop  offset="1" style="stop-color:#2E6BE8"/>
</linearGradient>
<path class="st0" d="M50.6,6c-8,0-14.5,20-14.5,44.6s6.5,44.6,14.5,44.6"/>
<linearGradient id="SVGID_2_" gradientUnits="userSpaceOnUse" x1="610.61" y1="-261.15" x2="641.605" y2="-261.15" gradientTransform="matrix(1 0 0 -1 -560.05 -210.55)">
	<stop  offset="0" style="stop-color:#CBC1F0"/>
	<stop  offset="0.1" style="stop-color:#A8AEEE"/>
	<stop  offset="0.23" style="stop-color:#8399EC"/>
	<stop  offset="0.36" style="stop-color:#6489EB"/>
	<stop  offset="0.5" style="stop-color:#4C7BEA"/>
	<stop  offset="0.64" style="stop-color:#3B72E9"/>
	<stop  offset="0.8" style="stop-color:#316DE8"/>
	<stop  offset="1" style="stop-color:#2E6BE8"/>
</linearGradient>
<path class="st1" d="M50.6,6c13.8,0,25,20,25,44.6s-11.2,44.6-25,44.6"/>
<linearGradient id="SVGID_3_" gradientUnits="userSpaceOnUse" x1="584.4247" y1="-279.9185" x2="685.6287" y2="-279.3584" gradientTransform="matrix(1 1.000000e-02 1.000000e-02 -1 -583.42 -230.03)">
	<stop  offset="0" style="stop-color:#CBC1F0"/>
	<stop  offset="0.1" style="stop-color:#A8AEEE"/>
	<stop  offset="0.23" style="stop-color:#8399EC"/>
	<stop  offset="0.36" style="stop-color:#6489EB"/>
	<stop  offset="0.5" style="stop-color:#4C7BEA"/>
	<stop  offset="0.64" style="stop-color:#3B72E9"/>
	<stop  offset="0.8" style="stop-color:#316DE8"/>
	<stop  offset="1" style="stop-color:#2E6BE8"/>
</linearGradient>
<path class="st2" d="M61,106C30.5,105.8,5.9,80.9,6,50.4C6.2,25.7,26.2,5.9,50.9,6s44.5,20.2,44.4,44.8C95.1,75.5,75,95.3,50.4,95.2
	c0,0,0,0,0,0"/>
<path class="st3" d="M126.2,25.1v11.3h-5.3V8.7h10.4c3.6,0,5.7,0.9,7.2,2.5c2.9,3.3,2.9,8.2,0,11.5c-1.5,1.6-3.7,2.5-7.2,2.5H126.2z
	 M131,20.4c1.8,0,2.7-0.4,3.4-1.1c0.6-0.6,0.9-1.5,0.9-2.3c0-0.9-0.3-1.7-0.9-2.4c-0.6-0.7-1.5-1.1-3.4-1.1h-4.8v6.9L131,20.4z"/>
<path class="st3" d="M156.1,21.7c-0.6-0.1-1.2-0.2-1.9-0.2c-1.9,0.1-3.7,1.1-4.7,2.8v12.1h-5.2V17.2h5v2c1.4-1.6,3.5-2.4,5.6-2.3
	c0.6,0,1.2,0.1,1.8,0.2L156.1,21.7z"/>
<path class="st3" d="M163.3,7.1c1.8,0,3.3,1.6,3.2,3.4c0,1.8-1.6,3.3-3.4,3.2c-1.8,0-3.2-1.5-3.2-3.3C159.9,8.5,161.4,7.1,163.3,7.1
	C163.2,7.1,163.2,7.1,163.3,7.1z M165.8,36.5h-5.2V17.2h5.2V36.5z"/>
<path class="st3" d="M171.8,36.5V17.2h5v1.5c1.4-1.3,3.3-2,5.2-1.9c2.5,0,4.9,1.1,6.5,3c1.8-1.9,4.2-3,6.8-3c2.6,0,5.1,1.1,6.8,3.1
	c1.4,1.8,2.1,4.1,1.9,6.4v10.2h-5.2V26.1c0.1-1.2-0.2-2.4-1-3.3c-0.8-0.8-1.8-1.2-2.9-1.2c-1.9,0.1-3.6,1-4.7,2.5
	c0.1,0.7,0.2,1.4,0.2,2.1v10.2h-5.2V26.1c0.1-1.2-0.2-2.4-1-3.3c-0.8-0.8-1.8-1.2-2.9-1.2c-1.8,0.1-3.4,1-4.5,2.4v12.5H171.8z"/>
<path class="st3" d="M225.9,33.4c-2,2.2-4.9,3.5-7.9,3.5c-5.8,0-10.1-4-10.1-10c0-5.4,3.6-10,9.4-10c5.3,0,9.1,4.5,9.1,9.8
	c0,0.5,0,1-0.1,1.5h-13.3c0.3,2.7,2.5,4.7,5.2,4.6c1.9,0,3.6-0.9,4.9-2.2L225.9,33.4z M221.1,24.4c-0.2-1.9-1.9-3.4-3.8-3.4
	c-2,0-3.7,1.4-4.1,3.4H221.1z"/>
<path class="st3" d="M134.7,62.9l10.1-16.6h3.8V74h-5.4V58.5l-6.7,10.9h-3.7l-6.7-10.9V74h-5.3V46.2h3.8L134.7,62.9z"/>
<path class="st3" d="M163.4,54.4c5.5,0.1,9.9,4.7,9.8,10.2c-0.1,5.5-4.7,9.9-10.2,9.8c-5.4-0.1-9.8-4.6-9.8-10c0-5.5,4.5-10,10-10
	C163.2,54.4,163.3,54.4,163.4,54.4z M163.4,69.7c2.9,0.1,5.3-2.2,5.4-5.1c0.1-2.9-2.2-5.3-5.1-5.4c-2.9-0.1-5.3,2.2-5.4,5.1
	c0,0.1,0,0.1,0,0.2c-0.1,2.8,2,5.1,4.8,5.2C163.2,69.7,163.3,69.7,163.4,69.7z"/>
<path class="st3" d="M185.4,66.5l5.3-11.7h5.4L187.2,74h-3.6l-8.8-19.2h5.4L185.4,66.5z"/>
<path class="st3" d="M215.2,71c-2,2.2-4.9,3.5-7.9,3.5c-5.8,0-10.1-4-10.1-10c0-5.4,3.7-10,9.4-10c5.3,0,9.1,4.5,9.1,9.8
	c0,0.5,0,1-0.1,1.5h-13.3c0.3,2.7,2.5,4.7,5.2,4.6c1.8-0.1,3.6-0.9,4.8-2.2L215.2,71z M210.4,62c-0.2-1.9-1.9-3.4-3.8-3.4
	c-2,0-3.7,1.4-4.1,3.4H210.4z"/>
<path class="st3" d="M231.8,59.3c-0.6-0.1-1.2-0.2-1.9-0.2c-1.9,0.1-3.7,1.1-4.7,2.8V74h-5.2V54.8h5v1.9c1.4-1.6,3.5-2.4,5.6-2.3
	c0.6,0,1.2,0.1,1.8,0.2L231.8,59.3z"/>
<path class="st3" d="M236.7,68.1c1.5,1.2,3.3,1.9,5.3,1.9c1.4,0,2.5-0.7,2.5-1.6c0-2.9-9.3-1.9-9.3-8.1c0-3.7,3.6-6,7.4-6
	c2.3,0,4.6,0.7,6.5,2l-2.4,3.7c-1.1-0.8-2.4-1.3-3.7-1.3c-1.4,0-2.6,0.5-2.6,1.5c0,2.5,9.3,1.5,9.3,8.2c0,3.7-3.6,6-7.7,6
	c-2.8,0-5.5-0.9-7.7-2.6L236.7,68.1z"/>
<path class="st3" d="M120.8,83.8h5.3v23h11.7v4.8h-17.1V83.8z"/>
<path class="st3" d="M159.9,111.6h-5v-1.5c-1.5,1.3-3.4,2-5.3,1.9c-2.8,0-5.4-1.2-7.3-3.2c-1.6-1.9-2.5-4.3-2.5-6.8
	c0-5.7,4.2-10,9.4-10c2,0,4,0.7,5.6,1.9v-1.5h5V111.6z M154.7,99.1c-1.1-1.5-2.9-2.4-4.8-2.4c-2.9,0.2-5.1,2.6-5,5.5
	c0.1,2.7,2.4,4.9,5.1,5c1.8,0,3.6-0.9,4.6-2.4V99.1z"/>
<path class="st3" d="M165.8,111.6V83.5h5.1v10.3c1.6-1.2,3.5-1.8,5.4-1.8c5.2,0,9.4,4.4,9.4,10c0,2.5-0.9,4.9-2.5,6.8
	c-1.8,2.1-4.5,3.3-7.3,3.2c-2,0-3.9-0.7-5.3-1.9v1.5L165.8,111.6z M171,104.9c1.1,1.5,2.8,2.4,4.7,2.4c2.9-0.1,5.2-2.5,5.1-5.4
	c-0.1-2.7-2.3-4.9-5-5.1c-1.9,0-3.6,0.9-4.8,2.4V104.9z"/>
</svg>
