<?xml version="1.0" encoding="utf-8"?>
<!-- Generator: Adobe Illustrator 26.0.0, SVG Export Plug-In . SVG Version: 6.00 Build 0)  -->
<svg version="1.1" id="Layer_1" xmlns="http://www.w3.org/2000/svg" xmlns:xlink="http://www.w3.org/1999/xlink" x="0px" y="0px"
	 width="720px" height="112px" viewBox="0 0 720 112" style="enable-background:new 0 0 720 112;" xml:space="preserve">
<style type="text/css">
	.st0{fill:none;stroke:url(#SVGID_1_);stroke-width:11.99;stroke-miterlimit:10;}
	.st1{fill:none;stroke:url(#SVGID_00000130621527170459526230000002397858858339380634_);stroke-width:11.99;stroke-miterlimit:10;}
	.st2{fill:none;stroke:url(#SVGID_00000022523778962927144350000006504467706443282560_);stroke-width:11.99;stroke-miterlimit:10;}
</style>
<linearGradient id="SVGID_1_" gradientUnits="userSpaceOnUse" x1="590.155" y1="873.15" x2="610.65" y2="873.15" gradientTransform="matrix(1 0 0 1 -560.05 -822.55)">
	<stop  offset="0" style="stop-color:#CBC1F0"/>
	<stop  offset="0.1" style="stop-color:#A8AEEE"/>
	<stop  offset="0.23" style="stop-color:#8399EC"/>
	<stop  offset="0.36" style="stop-color:#6489EB"/>
	<stop  offset="0.5" style="stop-color:#4C7BEA"/>
	<stop  offset="0.64" style="stop-color:#3B72E9"/>
	<stop  offset="0.8" style="stop-color:#316DE8"/>
	<stop  offset="1" style="stop-color:#2E6BE8"/>
</linearGradient>
<path class="st0" d="M50.6,6c-8,0-14.5,20-14.5,44.6s6.5,44.6,14.5,44.6"/>
<linearGradient id="SVGID_00000147217975895413965570000000835222770352458907_" gradientUnits="userSpaceOnUse" x1="610.61" y1="873.15" x2="641.605" y2="873.15" gradientTransform="matrix(1 0 0 1 -560.05 -822.55)">
	<stop  offset="0" style="stop-color:#CBC1F0"/>
	<stop  offset="0.1" style="stop-color:#A8AEEE"/>
	<stop  offset="0.23" style="stop-color:#8399EC"/>
	<stop  offset="0.36" style="stop-color:#6489EB"/>
	<stop  offset="0.5" style="stop-color:#4C7BEA"/>
	<stop  offset="0.64" style="stop-color:#3B72E9"/>
	<stop  offset="0.8" style="stop-color:#316DE8"/>
	<stop  offset="1" style="stop-color:#2E6BE8"/>
</linearGradient>
<path style="fill:none;stroke:url(#SVGID_00000147217975895413965570000000835222770352458907_);stroke-width:11.99;stroke-miterlimit:10;" d="
	M50.6,6c13.8,0,25,20,25,44.6s-11.2,44.6-25,44.6"/>
<linearGradient id="SVGID_00000000217038605061287090000007093377336466526895_" gradientUnits="userSpaceOnUse" x1="586.8801" y1="888.4633" x2="688.165" y2="887.9028" gradientTransform="matrix(1 1.000000e-02 -1.000000e-02 1 -579.79 -838.59)">
	<stop  offset="0" style="stop-color:#CBC1F0"/>
	<stop  offset="0.1" style="stop-color:#A8AEEE"/>
	<stop  offset="0.23" style="stop-color:#8399EC"/>
	<stop  offset="0.36" style="stop-color:#6489EB"/>
	<stop  offset="0.5" style="stop-color:#4C7BEA"/>
	<stop  offset="0.64" style="stop-color:#3B72E9"/>
	<stop  offset="0.8" style="stop-color:#316DE8"/>
	<stop  offset="1" style="stop-color:#2E6BE8"/>
</linearGradient>
<path style="fill:none;stroke:url(#SVGID_00000000217038605061287090000007093377336466526895_);stroke-width:11.99;stroke-miterlimit:10;" d="
	M61,106C30.5,105.8,5.9,80.9,6,50.4C6.2,25.7,26.2,5.9,50.9,6s44.5,20.2,44.4,44.8C95.1,75.5,75,95.3,50.4,95.2l0,0"/>
<g>
	<g>
		<g>
			<g>
				<g>
					<path d="M133.5,12h13.9c7.7,0,13.1,3,13.1,11.2v2.5c0,6.2-2.5,8.5-5.3,9.4c2.7,1.1,6,3.2,6,9.3v4.3c0,9.4-3.6,13.4-13.5,13.4
						h-14.2V12z M146.6,30.8c1.4,0,2.2-0.8,2.2-2.9V24c0-1.7-0.3-3.2-2.5-3.2h-1.1v10H146.6z M145.2,53.2h1.1c2,0,2.4-1.2,2.4-3.5
						v-7c0-2.3-0.7-3.3-2.8-3.3h-0.7V53.2z"/>
				</g>
				<g>
					<path d="M177.2,40.9V62h-11.9V12h14.8c9.8,0,12.9,5,12.9,12.9v1.8c0,5.6-1.9,8.5-4.8,10c3.6,1.7,4.6,4.4,4.6,11.7
						c0,6-0.1,11.7,0.2,13.7h-11.6c-0.5-0.9-0.7-4.4-0.7-15.8c0-5-0.5-5.3-2.9-5.3H177.2z M177.3,32h0.9c2,0,2.8-0.7,2.8-3.8v-4
						c0-2.8-0.7-3.4-3-3.4h-0.7V32z"/>
				</g>
				<g>
					<path d="M218.6,40.6h-9.2v11.6h11.1l-1.4,9.9h-21.7V12H219v9.9h-9.6v9h9.2V40.6z"/>
				</g>
				<g>
					<path d="M235.6,51.5L235,62h-12.2l5.3-50.1h19l5.3,50.1h-12.3l-0.6-10.5H235.6z M239,41.6c-0.2-3.8-1.1-16.9-1.4-19.6h-0.5
						c-0.1,2.2-0.8,14.7-1.1,19.6H239z"/>
				</g>
				<g>
					<path d="M255.9,12h11.4v21.1h0.3c1.1-4.1,3.1-14.1,4.7-21.1h12.9l-7.3,19.5l7.4,30.6h-12.8l-2.9-19.6l-2.3,5.9V62h-11.4V12z"/>
				</g>
				<g>
					<path d="M292.4,21.8h-5.9V12h23.8v9.9h-5.9V62h-11.9V21.8z"/>
				</g>
				<g>
					<path d="M313.6,12h12v18.9h3.6V12h12.1V62h-12.1V40.8h-3.6V62h-12V12z"/>
				</g>
				<g>
					<path d="M358,40.9V62h-11.9V12H361c9.8,0,12.9,5,12.9,12.9v1.8c0,5.6-1.9,8.5-4.8,10c3.6,1.7,4.6,4.4,4.6,11.7
						c0,6-0.1,11.7,0.2,13.7h-11.6c-0.5-0.9-0.7-4.4-0.7-15.8c0-5-0.5-5.3-2.9-5.3H358z M358.1,32h0.9c2,0,2.8-0.7,2.8-3.8v-4
						c0-2.8-0.7-3.4-3-3.4h-0.7V32z"/>
				</g>
				<g>
					<path d="M405.5,25V49c0,10.2-5.6,13.8-14.3,13.8c-8.4,0-13.4-4-13.4-13.8V24.4c0-9.3,5.7-13.2,13.7-13.2
						C399.5,11.2,405.5,15.3,405.5,25z M389.8,23.6v26.8c0,1.9,0.5,3,1.8,3c1.1,0,1.8-1,1.8-3V23.5c0-2.3-0.5-2.9-1.9-2.9
						C390.4,20.6,389.8,21.4,389.8,23.6z"/>
				</g>
				<g>
					<path d="M422,12v38.7c0,1.8,0.5,2.8,1.6,2.8c1.4,0,1.7-0.9,1.7-2.8V12h12.3v37.2c0,10.6-5,13.5-14.1,13.5
						c-9.6,0-13.5-3.9-13.5-13.8V12H422z"/>
				</g>
				<g>
					<path d="M469.9,62h-8.6c-0.2-0.8-0.4-2.9-0.5-3.9c-1.9,4.1-5.6,4.7-8.5,4.7c-8.3,0-10.2-6.5-10.2-13.9V24.4
						c0-6.8,3.2-13.2,13.7-13.2c12.5,0,14,8.8,14,13.8v3.2h-12.1v-3.8c0-2.5-0.2-3.8-1.8-3.8c-1.4,0-1.8,1.1-1.8,3.9v25.9
						c0,2.8,1.1,3,1.8,3c1.1,0,1.9-0.8,1.9-3.6v-7.3h-2v-9.9h14V62z"/>
				</g>
				<g>
					<path d="M474.8,12h12v18.9h3.6V12h12.1V62h-12.1V40.8h-3.6V62h-12V12z"/>
				</g>
				<g>
					<path d="M535.2,45.6v4.1c0,3,0.5,3.8,1.7,3.8c1.1,0,1.4-1.1,1.4-2.9c0-3.8-0.5-4.9-5-9.2c-6.1-5.7-9-8.7-9-15.9
						c0-8,3-14.2,12.7-14.2c10.7,0,12.6,6.5,12.6,13.3v3.1H539v-3.8c0-2.6-0.5-3.2-1.6-3.2c-0.9,0-1.4,0.8-1.4,3
						c0,2.6,0.5,3.7,4.2,7.1c6.8,6.1,10.1,9.3,10.1,17.2c0,9.2-2.8,15-13.4,15c-9.5,0-13.1-5.2-13.1-14.1v-3H535.2z"/>
				</g>
				<g>
					<path d="M581.3,43.5v4c0,7.7-1.7,15.3-14,15.3c-6.7,0-13.3-2.3-13.3-14.3V25.1c0-10.7,5.9-13.9,13.6-13.9
						c12.3,0,13.7,8.2,13.7,13.8v4.7h-12.1v-5.9c0-2-0.1-3.2-1.6-3.2c-1.4,0-1.7,1-1.7,3.2V50c0,2.5,0.3,3.4,1.5,3.4
						c1.4,0,1.7-0.9,1.7-3.6v-6.3H581.3z"/>
				</g>
				<g>
					<path d="M597.1,12V62h-11.9V12H597.1z"/>
				</g>
				<g>
					<path d="M623.2,40.6H614v11.6H625l-1.4,9.9H602V12h21.6v9.9H614v9h9.2V40.6z"/>
				</g>
				<g>
					<path d="M628.3,62V12h12.5c1.2,5.5,5,25.2,5.3,27.3h0.5c-0.8-7.9-1.8-20.8-1.8-25.5V12H656V62h-13.5c-0.6-4.3-4.1-27.4-4.4-29
						h-0.6c0.4,5.6,1.4,22,1.4,27.8V62H628.3z"/>
				</g>
				<g>
					<path d="M687.8,43.5v4c0,7.7-1.7,15.3-14,15.3c-6.7,0-13.3-2.3-13.3-14.3V25.1c0-10.7,5.9-13.9,13.6-13.9
						c12.3,0,13.7,8.2,13.7,13.8v4.7h-12.1v-5.9c0-2-0.2-3.2-1.6-3.2c-1.4,0-1.7,1-1.7,3.2V50c0,2.5,0.3,3.4,1.5,3.4
						c1.4,0,1.7-0.9,1.7-3.6v-6.3H687.8z"/>
				</g>
				<g>
					<path d="M712.8,40.6h-9.2v11.6h11.1l-1.4,9.9h-21.7V12h21.6v9.9h-9.6v9h9.2V40.6z"/>
				</g>
			</g>
			<g>
				<path d="M142.2,94.3c0.2,0.8,0.7,1.8,2.2,1.8c1.2,0,1.8-0.5,1.8-1.1c0-0.7-0.2-1.2-3.5-1.8c-7.8-1.4-8.6-4.3-8.6-6.8
					c0-3.7,3.3-6.5,9.9-6.5c6.1,0,10.1,2.2,10.4,6.2h-8.2c-0.2-0.8-0.6-1.5-2-1.5c-1,0-1.4,0.4-1.4,0.9c0,0.7,0.8,1,3.1,1.4
					c7.3,1.3,9.3,3.8,9.3,6.9c0,4.3-4,7-10.7,7c-7.2,0-10.5-2.8-11.1-6.5H142.2z"/>
			</g>
			<g>
				<path d="M254.1,80.4v12.1c0,1.6,0.6,2.7,2.3,2.7c2,0,2.3-1.5,2.3-2.7V80.4h8.7v11.8c0,5.5-2.9,8.7-11.2,8.7
					c-8,0-10.9-3.3-10.9-8.8V80.4H254.1z"/>
			</g>
			<g>
				<path d="M373.9,94.9c0-2.8,0.1-7.1,0.3-9.6h-0.1c-0.9,3.9-1.7,8.7-3.2,15h-6.6c-1.2-6.5-1.7-10.9-2.5-15.1h-0.1
					c0.1,2.3,0.4,6.3,0.4,9.7v5.4h-7.7V80.4h12.3c0.3,1.5,1.1,6.6,1.6,10.7h0.1c0.7-4,1.6-8.6,2.1-10.7h12.2v19.9h-8.6V94.9z"/>
			</g>
			<g>
				<path d="M485.9,94.9c0-2.8,0.1-7.1,0.3-9.6h-0.1c-0.9,3.9-1.7,8.7-3.2,15h-6.6c-1.2-6.5-1.7-10.9-2.5-15.1h-0.1
					c0.1,2.3,0.4,6.3,0.4,9.7v5.4h-7.7V80.4h12.3c0.3,1.5,1.1,6.6,1.6,10.7h0.1c0.7-4,1.6-8.6,2.1-10.7h12.2v19.9h-8.6V94.9z"/>
			</g>
			<g>
				<path d="M700.1,85.7h-6v-5.4h20.6v5.4h-5.9v14.5h-8.7V85.7z"/>
			</g>
			<g>
				<polygon points="602.7,85.7 602.7,80.4 596.7,80.4 588,80.4 582.1,80.4 582.1,85.7 588,85.7 588,94.9 582.1,94.9 582.1,100.3 
					588.1,100.3 596.8,100.3 602.7,100.3 602.7,94.9 596.8,94.9 596.8,85.7 				"/>
			</g>
		</g>
	</g>
</g>
</svg>
